<svg width="119" height="20" viewBox="0 0 119 20" fill="none" xmlns="http://www.w3.org/2000/svg">
<path d="M12.3305 19.5668C9.68326 19.5668 7.4366 19.1749 5.59051 18.3912C3.74442 17.5901 2.35115 16.4493 1.41069 14.969C0.47023 13.4886 0 11.7209 0 9.66584C0 7.59334 0.496354 5.83434 1.48906 4.38881C2.49919 2.94329 3.95342 1.8548 5.85175 1.12333C7.7675 0.374442 10.0577 0 12.7223 0C14.3594 0 16.1359 0.165451 18.0516 0.496354C19.9674 0.809841 21.8657 1.34973 23.7466 2.11603C23.7118 2.39469 23.6944 2.67334 23.6944 2.952C23.6944 3.21324 23.7118 3.45706 23.7466 3.68347C21.9354 2.81267 20.0806 2.19441 18.1822 1.82867C16.2839 1.44552 14.5162 1.25395 12.8791 1.25395C10.5105 1.25395 8.48156 1.59356 6.79221 2.27278C5.10287 2.93458 3.81409 3.90117 2.92588 5.17253C2.05508 6.42648 1.61968 7.91554 1.61968 9.63972C1.61968 11.3813 2.04637 12.9139 2.89975 14.2375C3.75313 15.5437 4.98096 16.5538 6.58322 17.2679C8.18549 17.9819 10.0925 18.339 12.3044 18.339C15.2476 18.339 17.6859 17.7468 19.619 16.5625C21.5522 15.3783 22.6842 13.5496 23.0152 11.0765C22.2663 11.0765 21.5087 11.0765 20.7424 11.0765C19.9935 11.0765 19.2446 11.0765 18.4957 11.0765C17.0154 11.0765 15.5524 11.0939 14.1069 11.1288C12.6614 11.1462 11.2333 11.1549 9.82258 11.1549C9.84 10.9633 9.84871 10.7456 9.84871 10.5018C9.84871 10.2406 9.84 10.0055 9.82258 9.79646C12.2608 9.81388 14.7078 9.82258 17.1634 9.82258C19.619 9.82258 22.0573 9.81388 24.4781 9.79646C24.4781 9.93579 24.4694 10.1361 24.452 10.3973C24.452 10.6585 24.4607 10.9807 24.4781 11.3639C24.0775 14.1853 22.7713 16.2578 20.5595 17.5814C18.3651 18.905 15.6221 19.5668 12.3305 19.5668Z" fill="#FFFCFE"/>
<path d="M30.9425 19.3317C30.9774 16.3361 30.9948 13.1577 30.9948 9.79646C30.9948 6.43518 30.9774 3.25678 30.9425 0.261239C32.0571 0.261239 33.1544 0.261239 34.2341 0.261239C35.3139 0.261239 36.385 0.261239 37.4474 0.261239C38.1788 0.243823 38.9103 0.235115 39.6418 0.235115C40.3907 0.235115 41.1483 0.235115 41.9146 0.235115C44.9449 0.235115 47.209 0.679222 48.7068 1.56743C50.222 2.45565 50.9796 3.85763 50.9796 5.77338C50.9796 7.41048 50.4484 8.6383 49.386 9.45685C48.341 10.2754 47.1306 10.7892 45.7548 10.9982C44.3963 11.2071 42.8289 11.3116 41.0525 11.3116V11.4684C43.4559 11.6948 45.5458 12.4176 47.3222 13.6367C49.1161 14.8558 50.5964 16.7541 51.7633 19.3317H49.6734C48.9419 17.503 48.0363 16.0401 46.9565 14.9429C45.8767 13.8457 44.5531 13.0445 42.9856 12.5395C41.4356 12.017 39.5547 11.747 37.3429 11.7296C36.2631 11.7122 35.34 11.7035 34.5737 11.7035C33.8074 11.7035 33.1195 11.7035 32.51 11.7035C32.5274 13.567 32.5448 14.8732 32.5622 15.6221C32.5622 16.2491 32.5622 16.876 32.5622 17.503C32.5796 18.1126 32.5883 18.7221 32.5883 19.3317H30.9425ZM32.51 10.5541H34.4693C35.4271 10.5715 36.3241 10.5802 37.16 10.5802C37.996 10.5802 38.7362 10.5802 39.3805 10.5802C41.7143 10.5802 43.5778 10.4583 44.9711 10.2144C46.3817 9.97062 47.4615 9.5091 48.2104 8.82988C48.9593 8.15065 49.3337 7.16665 49.3337 5.87787C49.3337 4.31044 48.7068 3.18711 47.4528 2.50789C46.2163 1.82867 44.3528 1.48906 41.8623 1.48906C40.9393 1.48906 40.0075 1.48906 39.0671 1.48906C38.1266 1.48906 37.1948 1.48906 36.2718 1.48906H32.51C32.51 2.98683 32.51 4.49331 32.51 6.00849C32.51 7.50626 32.51 9.02145 32.51 10.5541Z" fill="#FFFCFE"/>
<path d="M55.5716 0.235115C55.8851 0.252531 56.1812 0.261239 56.4599 0.261239C56.7385 0.261239 57.0172 0.252531 57.2958 0.235115C61.9633 12.7223 64.2361 18.9485 64.1142 18.9137H63.879C64.506 17.1721 65.133 15.4305 65.76 13.6889C66.3869 11.9473 67.0139 10.2057 67.6409 8.46414C69.2083 4.19724 70.1749 1.45423 70.5406 0.235115C70.9412 0.252531 71.3331 0.261239 71.7162 0.261239C72.0994 0.261239 72.4912 0.252531 72.8918 0.235115C73.5884 2.30761 74.6334 5.32057 76.0267 9.27398C77.6115 13.6802 78.761 16.8934 79.475 18.9137H79.266C80.9728 14.4204 82.1919 11.0765 82.9234 8.88212C83.4807 7.40177 84.0206 5.94754 84.543 4.51943C85.0655 3.07391 85.588 1.6458 86.1105 0.235115C86.3891 0.252531 86.6678 0.261239 86.9464 0.261239C87.2251 0.261239 87.5125 0.252531 87.8085 0.235115C87.1815 1.81996 86.5372 3.47448 85.8754 5.19865C85.231 6.92283 84.543 8.82987 83.8116 10.9198L80.52 19.3317H78.0904C77.3764 17.1373 76.3053 14.0372 74.8772 10.0316C74.3199 8.42931 73.7539 6.86188 73.1791 5.32927C72.6218 3.77926 72.0732 2.27278 71.5333 0.80984H71.8207C70.3752 4.62393 69.2606 7.69784 68.4768 10.0316C67.9195 11.5816 67.3709 13.1403 66.831 14.7078C66.2911 16.2752 65.7513 17.8165 65.2114 19.3317H62.7557C62.2332 17.9907 61.7108 16.6496 61.1883 15.3086C60.6658 13.9676 60.152 12.6265 59.647 11.2855C58.9155 9.19561 58.2189 7.24503 57.5571 5.43377C56.8953 3.62251 56.2334 1.88963 55.5716 0.235115Z" fill="#FFFCFE"/>
<path d="M93.748 19.3317C93.7829 16.3361 93.8003 13.1664 93.8003 9.82258C93.8003 6.46131 93.7829 3.27419 93.748 0.261239C94.1486 0.278655 94.5927 0.287362 95.0804 0.287362C95.5854 0.287362 96.0295 0.278655 96.4127 0.261239C97.8408 2.97812 99.443 6.04333 101.219 9.45685C104.476 15.4653 106.096 18.5131 106.079 18.6002H105.713C106.496 17.1721 108.151 14.1243 110.676 9.45685C112.522 5.99108 114.16 2.92588 115.588 0.261239C115.971 0.278655 116.397 0.287362 116.868 0.287362C117.355 0.287362 117.791 0.278655 118.174 0.261239C118.156 3.43094 118.148 6.6703 118.148 9.97933C118.165 13.2709 118.2 16.3884 118.252 19.3317H116.606C116.624 16.789 116.633 14.6468 116.633 12.9052C116.633 12.0692 116.615 8.10711 116.58 1.01883H116.737C115.501 3.24807 113.759 6.46131 111.512 10.6585C110.415 12.7136 108.856 15.6134 106.836 19.3578H104.955C104.119 17.7207 102.587 14.8122 100.357 10.6324C98.581 7.28857 96.8568 4.09274 95.1849 1.04495H95.3416C95.3242 4.05791 95.3155 7.11441 95.3155 10.2144C95.3155 13.3145 95.3329 16.3536 95.3677 19.3317H93.748Z" fill="#FFFCFE"/>
</svg>
