<svg width="69" height="22" viewBox="0 0 69 22" fill="none" xmlns="http://www.w3.org/2000/svg">
<path d="M0.23341 8.90657C1.37247 3.47409 6.57457 -0.407922 12.4644 0.0342982C12.9353 0.0699402 13.4036 0.132669 13.8668 0.222152C16.4868 0.729892 18.8434 2.09965 20.5346 4.09787C22.6276 6.71524 23.0482 9.17891 23.1003 11.2992C23.1096 11.4269 23.1152 11.559 23.1152 11.6866V18.1204C23.1159 18.5918 22.9225 19.0442 22.5775 19.3777C22.2326 19.7112 21.7644 19.8985 21.2763 19.8983L21.0349 19.8944C20.0705 19.8624 19.1228 19.635 18.2537 19.2259C10.4534 16.3093 16.6614 4.95445 10.3742 3.86867C8.63959 3.51813 4.17826 5.41105 3.97073 11.106C3.7995 15.0446 6.8491 18.6759 11.3049 18.7873C11.8111 18.8296 12.1136 18.7604 12.4216 18.7523C13.234 18.7451 14.0399 19.6008 13.9683 20.4915C13.9159 21.1279 13.481 21.675 12.858 21.8883C12.2792 22.0438 11.2769 22.0078 10.3975 21.9539C4.02657 21.4757 -0.456171 16.392 0.0370513 10.2638C0.0398432 10.2242 0.047288 10.1856 0.047288 10.1451V10.1011C0.0800531 9.69918 0.142249 9.3 0.23341 8.90657ZM57.0509 0.000317405C58.7347 0.000317405 60.091 0.409135 61.459 1.26402C61.7981 1.50855 62.1026 1.7999 62.3638 2.1298C62.7101 1.10863 63.551 0.903888 64.1601 0.870266L64.2321 0.867012H67.2323C67.355 0.864229 67.4744 0.907898 67.5676 0.989657C67.6362 1.05447 67.6797 1.14167 67.6914 1.23534L67.6945 1.29218V18.8196C67.694 19.3526 67.293 19.7895 66.7831 19.8319L66.7018 19.8353H66.111C64.5035 19.8353 62.6548 18.7923 62.1332 17.3306C61.6077 18.2246 60.8467 18.9489 59.9376 19.4201C57.4347 20.6791 54.4734 20.5196 52.1133 18.9985C51.3297 18.4972 50.6292 17.8709 50.0383 17.1434C49.098 19.2111 47.4125 20.9 44.4549 20.9C40.7672 20.9 37.9391 18.5061 37.7865 15.3428C37.7386 14.7378 37.6507 8.18394 37.6277 7.45171C37.6099 6.88027 37.6153 6.4442 37.3908 5.94816C37.1972 5.51532 36.8838 5.15017 36.4895 4.89796C35.4889 4.26293 33.8078 4.09122 32.596 5.98087C32.3984 6.30732 32.2179 6.8582 32.1892 7.29273L32.1853 7.4081L32.0691 11.1274L32.1276 18.1064C32.1362 18.9703 31.4841 19.6836 30.6531 19.7424L30.5601 19.7462H30.1831C27.0562 19.4349 25.0377 17.5149 24.9099 14.6731L24.9048 14.5143V14.4679L24.8161 8.27207H24.8365L24.7663 0.57448C24.7646 0.442858 24.8186 0.316911 24.9145 0.229255C25.0028 0.151698 25.1119 0.10438 25.2266 0.092842L25.296 0.0902574H28.1605C29.8974 0.0914687 31.0646 0.883364 31.6619 2.46594C33.6549 0.830672 35.6341 0.0130362 37.5993 0.0130362C39.5929 0.0142475 41.1087 0.654729 42.1466 1.93448C43.1845 3.21423 43.7035 4.92188 43.7035 7.05742C43.7035 7.05742 43.7798 13.4413 43.786 13.9792C43.957 17.5484 48.0129 17.3414 48.18 13.0696L48.1843 12.9171H48.1976C48.0602 12.1763 47.9916 11.4237 47.9927 10.6696C47.9927 7.74969 48.3892 6.28249 49.1769 4.79711C50.724 1.8208 53.7586 -0.0278515 57.0509 0.000317405ZM53.1281 9.71383C53.0696 12.8154 54.9884 15.3691 57.4164 15.4191C59.8018 15.4682 61.7908 13.0804 61.9171 10.0555L61.922 9.8928C61.9824 6.79396 60.351 4.18934 57.6338 4.18661C55.2057 4.13756 53.1867 6.61227 53.1281 9.71383Z" fill="white"/>
</svg>
