<svg width="42" height="42" viewBox="0 0 42 42" fill="none" xmlns="http://www.w3.org/2000/svg">
<path d="M36.75 12.25V29.75C36.75 35 34.125 38.5 28 38.5H14C7.875 38.5 5.25 35 5.25 29.75V12.25C5.25 7 7.875 3.5 14 3.5H28C34.125 3.5 36.75 7 36.75 12.25Z" stroke="white" stroke-width="2.5" stroke-miterlimit="10" stroke-linecap="round" stroke-linejoin="round"/>
<path d="M27.125 3.5V17.255C27.125 18.025 26.215 18.41 25.655 17.9025L21.595 14.1575C21.2625 13.8425 20.7375 13.8425 20.405 14.1575L16.345 17.9025C15.785 18.41 14.875 18.025 14.875 17.255V3.5H27.125Z" stroke="white" stroke-width="2.5" stroke-miterlimit="10" stroke-linecap="round" stroke-linejoin="round"/>
<path d="M23.1875 24.5H30.625" stroke="white" stroke-width="2.5" stroke-miterlimit="10" stroke-linecap="round" stroke-linejoin="round"/>
<path d="M15.75 31.5H30.625" stroke="white" stroke-width="2.5" stroke-miterlimit="10" stroke-linecap="round" stroke-linejoin="round"/>
</svg>
