<svg width="25" height="25" viewBox="0 0 25 25" fill="none" xmlns="http://www.w3.org/2000/svg">
<g clip-path="url(#clip0_5022_15405)">
<rect width="25" height="25" rx="12.5" fill="#DB555A"/>
<path d="M15.2138 19.0414H9.82898C9.29023 19.0345 8.77428 18.8477 8.3843 18.5184C7.99431 18.189 7.75904 17.7414 7.72554 17.265L7.08749 8.66877C7.08422 8.60644 7.09493 8.54416 7.119 8.48553C7.14307 8.42689 7.18002 8.37306 7.22772 8.32716C7.27686 8.27958 7.33635 8.2413 7.40263 8.21461C7.4689 8.18793 7.54058 8.17339 7.61335 8.17188H17.4294C17.5016 8.17173 17.5729 8.18473 17.6391 8.21006C17.7053 8.23539 17.7649 8.27251 17.8143 8.31911C17.8636 8.36571 17.9015 8.4208 17.9258 8.48095C17.9501 8.5411 17.9601 8.60503 17.9553 8.66877L17.3453 17.265C17.3114 17.7457 17.0722 18.1968 16.6763 18.5268C16.2804 18.8568 15.7574 19.0408 15.2138 19.0414ZM8.20232 9.10355L8.7422 17.2091C8.76004 17.4536 8.88237 17.6828 9.08428 17.8501C9.28619 18.0174 9.5525 18.1103 9.82898 18.1098H15.2138C15.4898 18.1088 15.7552 18.0154 15.9568 17.8484C16.1583 17.6814 16.2811 17.453 16.3006 17.2091L16.8685 9.13461L8.20232 9.10355Z" fill="white"/>
<path d="M18.5418 9.25883H6.50167C6.36862 9.25883 6.24102 9.20157 6.14694 9.09965C6.05285 8.99773 6 8.85949 6 8.71535C6 8.57121 6.05285 8.43298 6.14694 8.33106C6.24102 8.22913 6.36862 8.17188 6.50167 8.17188H18.5418C18.6749 8.17188 18.8025 8.22913 18.8965 8.33106C18.9906 8.43298 19.0435 8.57121 19.0435 8.71535C19.0435 8.85949 18.9906 8.99773 18.8965 9.09965C18.8025 9.20157 18.6749 9.25883 18.5418 9.25883Z" fill="white"/>
<path d="M14.2609 9.26087H10.7827C10.6678 9.25899 10.5581 9.20113 10.4769 9.09961C10.3957 8.9981 10.3494 8.86095 10.3479 8.71739V7.41304C10.3552 7.04117 10.4767 6.68707 10.6871 6.42404C10.8976 6.16101 11.1808 6.00919 11.4783 6H13.5653C13.8677 6.00945 14.1552 6.16631 14.3665 6.43708C14.5777 6.70786 14.6958 7.0711 14.6957 7.44928V8.71739C14.6942 8.86095 14.6479 8.9981 14.5667 9.09961C14.4855 9.20113 14.3758 9.25899 14.2609 9.26087ZM11.2175 8.17391H13.8262V7.44928C13.8262 7.36279 13.7987 7.27985 13.7498 7.2187C13.7008 7.15754 13.6345 7.12319 13.5653 7.12319H11.4783C11.4091 7.12319 11.3428 7.15754 11.2939 7.2187C11.2449 7.27985 11.2175 7.36279 11.2175 7.44928V8.17391Z" fill="white"/>
<path d="M14.1521 16.8694C14.0086 16.8676 13.8714 16.8128 13.7699 16.7166C13.6684 16.6205 13.6105 16.4905 13.6086 16.3545V10.8625C13.6086 10.726 13.6659 10.595 13.7678 10.4985C13.8697 10.4019 14.008 10.3477 14.1521 10.3477C14.2963 10.3477 14.4345 10.4019 14.5364 10.4985C14.6383 10.595 14.6956 10.726 14.6956 10.8625V16.3545C14.6937 16.4905 14.6359 16.6205 14.5343 16.7166C14.4328 16.8128 14.2957 16.8676 14.1521 16.8694Z" fill="white"/>
<path d="M10.8914 16.8694C10.7478 16.8676 10.6107 16.8128 10.5092 16.7166C10.4076 16.6205 10.3498 16.4905 10.3479 16.3545V10.8625C10.3479 10.726 10.4052 10.595 10.5071 10.4985C10.609 10.4019 10.7472 10.3477 10.8914 10.3477C11.0355 10.3477 11.1738 10.4019 11.2757 10.4985C11.3776 10.595 11.4349 10.726 11.4349 10.8625V16.3545C11.433 16.4905 11.3751 16.6205 11.2736 16.7166C11.1721 16.8128 11.0349 16.8676 10.8914 16.8694Z" fill="white"/>
</g>
<defs>
<clipPath id="clip0_5022_15405">
<rect width="25" height="25" rx="12.5" fill="white"/>
</clipPath>
</defs>
</svg>
