<svg width="25" height="25" viewBox="0 0 25 25" fill="none" xmlns="http://www.w3.org/2000/svg">
<rect width="25" height="25" rx="12.5" fill="#4D4479"/>
<path d="M18.8711 7.15576L17.8506 6.13525C17.5283 5.81299 17.0718 5.625 16.6421 5.625C16.2124 5.625 15.7558 5.81299 15.4336 6.13525L5.95359 15.6152L5.63133 18.6768C5.57761 19.0527 5.87302 19.375 6.249 19.375C6.27586 19.375 6.30271 19.375 6.32957 19.375L9.39109 19.0527L18.8711 9.57275C19.5425 8.90137 19.5425 7.82715 18.8711 7.15576ZM8.80027 17.8174L7.00095 18.0054L7.18894 16.2061L13.3926 9.97559L14.2251 9.14307L15.8633 10.7812L15.0307 11.6138L8.80027 17.8174ZM17.958 8.65967L16.7763 9.86816L15.1382 8.22998L16.3467 7.04834C16.4541 6.94092 16.5884 6.91406 16.6421 6.91406C16.6958 6.91406 16.8301 6.94092 16.9375 7.04834L17.958 8.06885C18.1191 8.22998 18.1191 8.49853 17.958 8.65967Z" fill="white"/>
</svg>
