<svg width="42" height="42" viewBox="0 0 42 42" fill="none" xmlns="http://www.w3.org/2000/svg">
<path d="M34.9475 17.5H6.94751V31.5C6.94751 36.75 8.69751 38.5 13.9475 38.5H27.9475C33.1975 38.5 34.9475 36.75 34.9475 31.5V17.5Z" stroke="white" stroke-width="2.5" stroke-miterlimit="10" stroke-linecap="round" stroke-linejoin="round"/>
<path d="M37.625 12.25V14C37.625 15.925 36.6975 17.5 34.125 17.5H7.875C5.1975 17.5 4.375 15.925 4.375 14V12.25C4.375 10.325 5.1975 8.75 7.875 8.75H34.125C36.6975 8.75 37.625 10.325 37.625 12.25Z" stroke="white" stroke-width="2.5" stroke-miterlimit="10" stroke-linecap="round" stroke-linejoin="round"/>
<path d="M20.3701 8.74953H10.7101C10.1151 8.10203 10.1326 7.10453 10.7626 6.47453L13.2476 3.98953C13.8951 3.34203 14.9626 3.34203 15.6101 3.98953L20.3701 8.74953Z" stroke="white" stroke-width="2.5" stroke-miterlimit="10" stroke-linecap="round" stroke-linejoin="round"/>
<path d="M31.2725 8.74953H21.6125L26.3725 3.98953C27.02 3.34203 28.0875 3.34203 28.735 3.98953L31.22 6.47453C31.85 7.10453 31.8675 8.10203 31.2725 8.74953Z" stroke="white" stroke-width="2.5" stroke-miterlimit="10" stroke-linecap="round" stroke-linejoin="round"/>
<path d="M15.645 17.5V26.495C15.645 27.895 17.185 28.7175 18.3575 27.965L20.0025 26.88C20.5975 26.495 21.35 26.495 21.9275 26.88L23.485 27.93C24.64 28.7 26.1975 27.8775 26.1975 26.4775V17.5H15.645Z" stroke="white" stroke-width="2.5" stroke-miterlimit="10" stroke-linecap="round" stroke-linejoin="round"/>
</svg>
