<svg width="42" height="42" viewBox="0 0 42 42" fill="none" xmlns="http://www.w3.org/2000/svg">
<path d="M21 32.8125C20.2825 32.8125 19.6875 32.2175 19.6875 31.5V26.25C19.6875 25.5325 20.2825 24.9375 21 24.9375C21.7175 24.9375 22.3125 25.5325 22.3125 26.25V31.5C22.3125 32.2175 21.7175 32.8125 21 32.8125Z" fill="white"/>
<path d="M30.8001 39.4804H11.2001C8.01505 39.4804 5.11005 37.0304 4.58505 33.8979L2.25755 19.9504C1.87255 17.7804 2.94005 14.9979 4.67255 13.6154L16.8001 3.90292C19.1451 2.01292 22.8376 2.03042 25.2001 3.92042L37.3276 13.6154C39.0426 14.9979 40.0926 17.7804 39.7425 19.9504L37.4151 33.8804C36.89 36.9779 33.9151 39.4804 30.8001 39.4804ZM20.9826 5.12792C20.0551 5.12792 19.1276 5.40792 18.4451 5.95042L6.31755 15.6804C5.33755 16.4679 4.63755 18.2879 4.84755 19.5304L7.17505 33.4604C7.49005 35.2979 9.32755 36.8554 11.2001 36.8554H30.8001C32.6726 36.8554 34.5101 35.2979 34.8251 33.4429L37.1525 19.5129C37.3451 18.2879 36.6451 16.4329 35.6826 15.6629L23.5551 5.96792C22.8551 5.40792 21.9101 5.12792 20.9826 5.12792Z" fill="white"/>
</svg>
