<svg width="149" height="48" viewBox="0 0 149 48" fill="none" xmlns="http://www.w3.org/2000/svg">
<path d="M0.513027 19.4325C3.01665 7.57983 14.4507 -0.890012 27.3963 0.0748325C28.4314 0.152597 29.4607 0.289461 30.4788 0.484695C36.2375 1.59249 41.4171 4.58105 45.1344 8.94081C49.7346 14.6514 50.6592 20.0267 50.7737 24.6529C50.7942 24.9313 50.8065 25.2196 50.8065 25.4981V39.5354C50.8081 40.564 50.3829 41.5509 49.6247 42.2786C48.8665 43.0063 47.8375 43.4149 46.7646 43.4144L46.234 43.4059C44.1142 43.3362 42.0312 42.8401 40.121 41.9475C22.9761 35.5839 36.6213 10.8097 22.8022 8.44074C18.9895 7.67593 9.18367 11.8059 8.72754 24.2312C8.35117 32.8246 15.0541 40.7473 24.8477 40.9905C25.9604 41.0827 26.6252 40.9317 27.3022 40.914C29.0879 40.8984 30.8593 42.7653 30.7018 44.7087C30.5867 46.0971 29.6308 47.2909 28.2615 47.7562C26.9893 48.0955 24.7863 48.017 22.8534 47.8994C8.85026 46.8561 -1.00265 35.7643 0.0814376 22.3937C0.087574 22.3074 0.103938 22.2231 0.103938 22.1349V22.0388C0.175954 21.1619 0.312659 20.2909 0.513027 19.4325ZM125.396 0.00069252C129.097 0.00069252 132.078 0.892659 135.085 2.75786C135.83 3.29139 136.499 3.92706 137.074 4.64685C137.835 2.41884 139.683 1.97212 141.022 1.89876L141.18 1.89166H147.774C148.044 1.88559 148.306 1.98087 148.511 2.15925C148.662 2.30066 148.758 2.49093 148.783 2.69528L148.79 2.81931V41.0609C148.789 42.2239 147.908 43.1772 146.787 43.2696L146.608 43.2769H145.31C141.777 43.2769 137.713 41.0014 136.567 37.8121C135.412 39.7628 133.739 41.3429 131.741 42.3711C126.239 45.1181 119.731 44.77 114.543 41.4514C112.821 40.3574 111.281 38.9911 109.983 37.4038C107.916 41.9152 104.211 45.6 97.7103 45.6C89.6048 45.6 83.3888 40.377 83.0534 33.4752C82.9481 32.1551 82.7551 17.8559 82.7044 16.2583C82.6654 15.0115 82.6771 14.0601 82.1838 12.9778C81.7582 12.0334 81.0694 11.2367 80.2027 10.6865C78.0033 9.30093 74.3084 8.9263 71.6449 13.0492C71.2106 13.7614 70.8139 14.9633 70.7509 15.9114L70.7421 16.1631L70.4867 24.278L70.6154 39.5049C70.6342 41.3898 69.2011 42.9461 67.3746 43.0744L67.17 43.0827H66.3414C59.4687 42.4035 55.032 38.2143 54.7512 32.014L54.7398 31.6675V31.5664L54.5449 18.0481H54.5897L54.4356 1.25341C54.4317 0.966235 54.5505 0.691443 54.7613 0.500194C54.9554 0.330977 55.1952 0.227737 55.4473 0.202564L55.5997 0.196925H61.8957C65.7135 0.199568 68.2789 1.92734 69.5917 5.38024C73.9724 1.81238 78.3225 0.0284426 82.642 0.0284426C87.0239 0.0310855 90.3555 1.4285 92.6368 4.22069C94.9182 7.01287 96.0588 10.7386 96.0588 15.398C96.0588 15.398 96.2265 29.3266 96.2401 30.5C96.6159 38.2874 105.531 37.8358 105.898 28.5155L105.907 28.1829H105.937C105.635 26.5664 105.484 24.9244 105.486 23.279C105.486 16.9084 106.358 13.7072 108.089 10.4664C111.49 3.97266 118.16 -0.0607669 125.396 0.00069252ZM116.774 21.1938C116.645 27.9609 120.863 33.5327 126.199 33.6417C131.442 33.7488 135.814 28.5391 136.092 21.9392L136.103 21.5843C136.235 14.8232 132.649 9.14038 126.677 9.13443C121.34 9.02739 116.903 14.4268 116.774 21.1938Z" fill="#4D4479"/>
</svg>
