<svg width="98" height="90" viewBox="0 0 98 90" fill="none" xmlns="http://www.w3.org/2000/svg">
<path d="M44.4382 6.27817C44.4382 6.37723 44.4257 6.4763 44.4008 6.56298C44.4008 6.56298 44.4008 6.56298 44.4008 6.56917L44.2575 6.89732L44.1266 7.19452L37.0297 23.6764L34.5997 29.3292L34.0203 30.6728L33.4844 31.9111L32.9112 33.2361C30.1509 38.3874 24.6927 41.8918 18.4059 41.8918C14.9602 41.8918 11.7638 40.8393 9.12817 39.0375L31.9641 16.3456L33.609 14.7172L42.1016 6.27817L43.2605 5.12654H43.2668C43.9148 5.11416 44.4382 5.63425 44.4382 6.27817Z" fill="#FCDAA1"/>
<path d="M67.0309 63.1845L65.1492 65.0543C60.0399 62.974 54.4447 61.8348 48.5815 61.8348C42.7183 61.8348 37.123 62.9802 32.0138 65.0543L30.1321 63.1845C35.7834 60.7389 42.0204 59.3829 48.5815 59.3829C55.1425 59.3891 61.3796 60.745 67.0309 63.1845Z" fill="#F9B215"/>
<path d="M70.7009 59.5439L68.8566 61.3766C62.6881 58.5656 55.8155 56.9992 48.5815 56.9992C41.3476 56.9992 34.4812 58.5656 28.3065 61.3828L26.4622 59.5501C33.154 56.3553 40.6559 54.5659 48.5815 54.5659C56.5071 54.5597 64.009 56.3491 70.7009 59.5439Z" fill="#F9B215"/>
<path d="M89.6863 40.6721L74.1093 56.1509L73.2058 57.0487L72.5017 57.7421C65.2989 54.1634 57.174 52.1512 48.5755 52.1512C39.9769 52.1512 31.852 54.1634 24.6491 57.7421L7.47083 40.6721L7.48328 40.6597C10.5551 42.8577 14.3309 44.1517 18.4059 44.1517C22.7363 44.1517 26.724 42.6906 29.8955 40.2387C30.6432 39.6567 31.3473 39.0252 32.0015 38.3379C33.229 37.0501 34.2695 35.5951 35.0857 33.9977C38.3818 37.7064 43.2045 40.0468 48.5755 40.0468C53.9464 40.0468 58.769 37.7064 62.0651 33.9977C62.8814 35.5889 63.9219 37.0501 65.1494 38.3317C65.8036 39.019 66.5015 39.6505 67.2554 40.2325C70.4269 42.6905 74.4146 44.1517 78.7512 44.1517C82.8262 44.1517 86.6021 42.8577 89.6738 40.6597L89.6863 40.6721Z" fill="#F9B215"/>
<path d="M52.1455 4.3031H45.0175C44.6748 4.3031 44.5003 3.88827 44.7433 3.6468L46.3322 2.06796L48.3074 0.111447C48.4569 -0.0371492 48.7061 -0.0371492 48.8557 0.111447L52.4197 3.6468C52.6689 3.88827 52.4945 4.3031 52.1455 4.3031Z" fill="black"/>
<path d="M88.0351 39.0314C85.3932 40.8331 82.1968 41.8857 78.7512 41.8857C72.4581 41.8857 66.9874 38.3689 64.2334 33.2051L63.6789 31.9111L63.1555 30.7038C63.1555 30.7038 63.1555 30.7038 63.1492 30.6976L62.5635 29.3293L60.1335 23.6764L53.0366 7.18835L52.8995 6.87259V6.86639L52.7687 6.56301C52.7687 6.56301 52.7687 6.56301 52.7687 6.55682C52.7438 6.46394 52.7313 6.36489 52.7313 6.26582C52.7313 5.6281 53.2547 5.108 53.8965 5.108H53.9027L88.0351 39.0314Z" fill="#FCDAA1"/>
<path d="M61.8283 30.6047C61.5916 30.97 61.3423 31.3291 61.0744 31.6696C58.202 35.3969 53.6722 37.8054 48.5879 37.8054C43.4973 37.8054 38.9737 35.3969 36.1013 31.6696C35.8334 31.3229 35.578 30.97 35.3474 30.5985L37.117 26.4997L45.2668 7.55984L45.5535 6.89734C45.5597 6.87877 45.5722 6.86638 45.5784 6.84781C46.1765 5.81382 47.3043 5.12038 48.5941 5.12038C49.8777 5.12038 51.0054 5.81382 51.6036 6.84781C51.6098 6.86019 51.616 6.87258 51.6223 6.88496L51.9151 7.57222L60.065 26.5059L61.8283 30.6047Z" fill="#FCDAA1"/>
<path d="M19.0538 75.2889H15.6331V89.9876H19.0538V75.2889Z" fill="black"/>
<path d="M49.51 82.4154H52.5381V88.1859C51.7593 88.7679 50.862 89.2137 49.8402 89.5294C48.8183 89.839 47.7903 89.9938 46.7559 89.9938C45.2668 89.9938 43.9334 89.678 42.7495 89.0527C41.5657 88.4212 40.6311 87.5481 39.9581 86.4337C39.2852 85.3192 38.9425 84.0561 38.9425 82.6445C38.9425 81.2328 39.279 79.9697 39.9581 78.8552C40.6311 77.7408 41.5719 76.8616 42.7682 76.2362C43.9645 75.6047 45.3166 75.2889 46.8183 75.2889C48.0706 75.2889 49.2109 75.4994 50.2327 75.9205C51.2546 76.3415 52.1144 76.9483 52.8123 77.747L50.6876 79.6973C49.6657 78.6262 48.432 78.0937 46.9865 78.0937C46.0705 78.0937 45.2605 78.2856 44.5502 78.6633C43.8399 79.041 43.2916 79.5797 42.8928 80.2669C42.5003 80.9604 42.3009 81.7529 42.3009 82.6445C42.3009 83.5237 42.5003 84.31 42.8928 85.0034C43.2916 85.6969 43.8399 86.2356 44.5378 86.6194C45.2419 87.0033 46.0394 87.1952 46.9429 87.1952C47.8962 87.1952 48.756 86.9909 49.5224 86.5885V82.4154H49.51Z" fill="black"/>
<path d="M36.1325 87.4057V75.2889H32.7491V83.2636L36.1325 87.4057Z" fill="black"/>
<path d="M31.6151 82.8364L25.3968 75.2889H22.568V89.9876H25.9451V81.0594L33.3224 89.9876H36.1325V88.3716L31.6151 82.8364Z" fill="black"/>
<path d="M3.40203 81.2514V75.2889H0V84.7681L3.40203 81.2514Z" fill="black"/>
<path d="M7.62652 81.8396L13.7514 75.2889H9.9506L6.21835 79.202L6.22459 79.2082L5.1778 80.2917L3.40203 82.1553V82.1306L0 85.6536V89.9876H3.40203V86.2665L5.38964 84.2109L10.1188 89.9876H14.1128L7.62652 81.8396Z" fill="black"/>
<path d="M55.8591 75.7471C55.8591 75.6109 55.8965 75.4995 55.9713 75.419C56.0461 75.3385 56.1582 75.2951 56.2953 75.2951H66.1711C66.3144 75.2951 66.4266 75.3385 66.5076 75.4251C66.5886 75.5118 66.626 75.6233 66.626 75.7719V78.2175C66.626 78.329 66.5886 78.4404 66.5076 78.5395C66.4266 78.6447 66.3144 78.6943 66.1587 78.6943H59.7098V81.1461H64.6882C64.8128 81.1461 64.9187 81.1771 64.9997 81.2328C65.0807 81.2947 65.1244 81.3938 65.1244 81.53V83.6661C65.1244 83.7589 65.087 83.8456 65.0122 83.9323C64.9374 84.019 64.8315 84.0623 64.6944 84.0623H59.7098V86.5947H66.3954C66.6945 86.5947 66.844 86.7495 66.844 87.0466V89.5294C66.844 89.5975 66.8191 89.6533 66.763 89.709C66.7381 89.8947 66.601 89.9876 66.358 89.9876H56.2953C56.1644 89.9876 56.0585 89.9505 55.9775 89.8824C55.8965 89.8143 55.8591 89.7028 55.8591 89.5604V75.7471Z" fill="black"/>
<path d="M82.0972 82.6507C82.0972 83.3503 82.0099 84.0128 81.8292 84.6444C81.6486 85.2759 81.3931 85.8579 81.0628 86.4027C80.7326 86.9476 80.3338 87.4367 79.8728 87.8825C79.4117 88.3221 78.9008 88.6998 78.34 89.0094C77.7792 89.3189 77.1748 89.5604 76.5206 89.7276C75.8726 89.8948 75.1934 89.9814 74.5018 89.9814H69.5919C69.4735 89.9814 69.3676 89.9567 69.2742 89.901C69.1807 89.8452 69.1309 89.7338 69.1309 89.5666V75.7471C69.1309 75.6047 69.1682 75.4995 69.243 75.4128C69.3178 75.3261 69.4362 75.2828 69.5857 75.2828H74.4956C75.1934 75.2828 75.8664 75.3694 76.5081 75.5428C77.1561 75.7162 77.7605 75.9576 78.3213 76.2734C78.8821 76.5892 79.393 76.9669 79.8603 77.4127C80.3214 77.8523 80.7202 78.3476 81.0504 78.8986C81.3744 79.4435 81.6361 80.0378 81.8168 80.6694C82.0037 81.2947 82.0972 81.9572 82.0972 82.6507ZM72.9877 78.8305V86.4399H73.8227C73.9784 86.4399 74.128 86.4337 74.2713 86.4275C74.4146 86.4151 74.5641 86.4089 74.7074 86.3965C75.2059 86.3532 75.667 86.2356 76.1031 86.0374C76.5331 85.8393 76.9131 85.5731 77.2309 85.2449C77.5549 84.9168 77.8041 84.5329 77.9848 84.0933C78.1655 83.6537 78.259 83.1708 78.259 82.6507C78.259 82.0996 78.1531 81.5857 77.9474 81.1214C77.7356 80.657 77.4552 80.2546 77.0938 79.914C76.7324 79.5735 76.315 79.3072 75.8352 79.1215C75.3554 78.9358 74.8383 78.8367 74.2962 78.8367H72.9877V78.8305Z" fill="black"/>
<path d="M88.4961 83.8952C88.4961 84.3843 88.5647 84.7991 88.7018 85.1396C88.8388 85.4802 89.0195 85.7588 89.2438 85.9755C89.4681 86.1922 89.7236 86.347 90.0227 86.4461C90.3218 86.5451 90.6271 86.5947 90.9449 86.5947C91.2813 86.5947 91.5928 86.5389 91.8857 86.4213C92.1785 86.3037 92.4402 86.1365 92.6645 85.9074C92.8888 85.6783 93.0633 85.3997 93.1942 85.0591C93.325 84.7186 93.3873 84.3347 93.3873 83.9013V75.5056C93.3873 75.388 93.4309 75.2827 93.5119 75.2023C93.5929 75.1156 93.7051 75.0722 93.8422 75.0722H96.7457C96.9015 75.0722 97.0199 75.1156 97.1071 75.2084C97.1943 75.2951 97.2379 75.4004 97.2379 75.5118V83.8518C97.2379 85.0034 97.0697 85.9755 96.727 86.7618C96.3843 87.5481 95.9233 88.1797 95.35 88.6564C94.7706 89.1332 94.1039 89.4799 93.3437 89.6842C92.5835 89.8885 91.786 90 90.9511 90C90.1161 90 89.3124 89.8886 88.5522 89.678C87.7858 89.4613 87.1191 89.1146 86.5397 88.6317C85.9602 88.1487 85.5053 87.5172 85.1626 86.7309C84.82 85.9507 84.6517 84.9911 84.6517 83.858V75.518C84.6517 75.4066 84.6891 75.3075 84.7639 75.2146C84.8387 75.1279 84.9321 75.0784 85.0505 75.0784H88.0288C88.1285 75.0784 88.2344 75.1218 88.3404 75.2023C88.4463 75.2827 88.5024 75.388 88.5024 75.5118V83.8952H88.4961Z" fill="black"/>
</svg>
