<svg width="80" height="26" viewBox="0 0 80 26" fill="none" xmlns="http://www.w3.org/2000/svg">
<path d="M0.275839 10.5259C1.62196 4.10574 7.7697 -0.48209 14.7302 0.0405343C15.2867 0.0826565 15.8401 0.156791 16.3875 0.262543C19.4838 0.862599 22.2687 2.4814 24.2674 4.84294C26.7408 7.9362 27.2379 10.8478 27.2995 13.3536C27.3105 13.5045 27.3171 13.6606 27.3171 13.8115V21.415C27.318 21.9722 27.0894 22.5068 26.6817 22.9009C26.274 23.2951 25.7208 23.5164 25.1439 23.5161L24.8586 23.5115C23.7189 23.4738 22.5989 23.2051 21.5719 22.7216C12.3536 19.2746 19.6902 5.85526 12.2601 4.57207C10.2101 4.15779 4.93778 6.39488 4.69253 13.1253C4.49017 17.78 8.09413 22.0715 13.3599 22.2032C13.9581 22.2531 14.3156 22.1713 14.6796 22.1618C15.6397 22.1533 16.5921 23.1645 16.5074 24.2172C16.4455 24.9693 15.9316 25.6159 15.1954 25.8679C14.5113 26.0517 13.3269 26.0092 12.2876 25.9455C4.75852 25.3804 -0.539094 19.3723 0.0437865 12.1299C0.0470859 12.0832 0.0558841 12.0375 0.0558841 11.9897V11.9377C0.0946051 11.4627 0.168107 10.9909 0.275839 10.5259ZM67.4216 0.000375115C69.4114 0.000375115 71.0144 0.483524 72.631 1.49384C73.0317 1.78284 73.3916 2.12716 73.7003 2.51704C74.1096 1.3102 75.1033 1.06823 75.8232 1.0285L75.9082 1.02465H79.4537C79.5988 1.02136 79.7399 1.07297 79.85 1.16959C79.9312 1.24619 79.9825 1.34925 79.9963 1.45994L80 1.52712V22.2413C79.9994 22.8713 79.5255 23.3876 78.923 23.4377L78.8268 23.4417H78.1286C76.229 23.4417 74.0442 22.2091 73.4277 20.4816C72.8068 21.5382 71.9074 22.3941 70.833 22.951C67.8751 24.439 64.3755 24.2504 61.5864 22.4528C60.6604 21.8603 59.8326 21.1202 59.1343 20.2604C58.023 22.7041 56.0311 24.7 52.5359 24.7C48.1778 24.7 44.8356 21.8709 44.6553 18.1324C44.5987 17.4173 44.4949 9.67193 44.4676 8.80656C44.4467 8.13123 44.453 7.61587 44.1877 7.02965C43.9589 6.51811 43.5886 6.08657 43.1226 5.78849C41.94 5.038 39.9534 4.83508 38.5213 7.0683C38.2878 7.4541 38.0745 8.10515 38.0406 8.61868L38.0359 8.75503L37.8986 13.1506L37.9678 21.3985C37.9779 22.4195 37.2073 23.2625 36.2253 23.3319L36.1153 23.3364H35.6697C31.9745 22.9686 29.589 20.6994 29.438 17.3409L29.432 17.1532V17.0985L29.3271 9.77608H29.3512L29.2684 0.67893C29.2663 0.523377 29.3302 0.374532 29.4435 0.270938C29.5479 0.179279 29.6768 0.123358 29.8123 0.109722L29.8943 0.106668H33.2795C35.3322 0.108099 36.7115 1.04398 37.4174 2.9143C39.7727 0.981703 42.1116 0.0154064 44.4341 0.0154064C46.7901 0.016838 48.5814 0.773771 49.808 2.2862C51.0346 3.79864 51.6479 5.81677 51.6479 8.34059C51.6479 8.34059 51.7381 15.8852 51.7454 16.5208C51.9475 20.739 56.7407 20.4944 56.9382 15.4459L56.9432 15.2657H56.9589C56.7966 14.3901 56.7155 13.5007 56.7168 12.6095C56.7168 9.15872 57.1854 7.42476 58.1163 5.66932C59.9447 2.15186 63.5309 -0.0329154 67.4216 0.000375115ZM62.7858 11.48C62.7166 15.1455 64.9842 18.1635 67.8536 18.2226C70.6726 18.2806 73.0231 15.4587 73.1723 11.8837L73.1782 11.6915C73.2495 8.02923 71.3216 4.95104 68.1104 4.94782C65.241 4.88984 62.8549 7.8145 62.7858 11.48Z" fill="white"/>
</svg>
