<svg width="42" height="42" viewBox="0 0 42 42" fill="none" xmlns="http://www.w3.org/2000/svg">
<path d="M10.99 38.5001C14.0055 38.5001 16.45 36.0556 16.45 33.0401C16.45 30.0246 14.0055 27.5801 10.99 27.5801C7.97455 27.5801 5.53003 30.0246 5.53003 33.0401C5.53003 36.0556 7.97455 38.5001 10.99 38.5001Z" stroke="white" stroke-width="2.5" stroke-linecap="round" stroke-linejoin="round"/>
<path d="M36.47 29.3996V8.04961C36.47 3.49961 33.6175 2.86961 30.73 3.65711L19.81 6.63211C17.815 7.17461 16.45 8.74962 16.45 11.0246V14.8221V17.3771V33.0221" stroke="white" stroke-width="2.5" stroke-linecap="round" stroke-linejoin="round"/>
<path d="M31.01 34.8595C34.0255 34.8595 36.47 32.4149 36.47 29.3995C36.47 26.384 34.0255 23.9395 31.01 23.9395C27.9946 23.9395 25.55 26.384 25.55 29.3995C25.55 32.4149 27.9946 34.8595 31.01 34.8595Z" stroke="white" stroke-width="2.5" stroke-linecap="round" stroke-linejoin="round"/>
<path d="M16.45 16.6592L36.47 11.1992" stroke="white" stroke-width="2.5" stroke-linecap="round" stroke-linejoin="round"/>
</svg>
