<svg width="60" height="60" viewBox="0 0 60 60" fill="none" xmlns="http://www.w3.org/2000/svg">
<path d="M23.4375 18.6153H27.7676V38.4375C27.7676 38.6954 27.9785 38.9063 28.2363 38.9063H31.752C32.0098 38.9063 32.2207 38.6954 32.2207 38.4375V18.6153H36.5625C36.9551 18.6153 37.1719 18.1641 36.9316 17.8594L30.3691 9.55082C30.3253 9.4948 30.2693 9.44949 30.2053 9.41833C30.1414 9.38717 30.0711 9.37097 30 9.37097C29.9289 9.37097 29.8586 9.38717 29.7947 9.41833C29.7307 9.44949 29.6747 9.4948 29.6309 9.55082L23.0684 17.8536C22.8281 18.1641 23.0449 18.6153 23.4375 18.6153ZM51.4453 36.6797H47.9297C47.6719 36.6797 47.4609 36.8907 47.4609 37.1485V46.1719H12.5391V37.1485C12.5391 36.8907 12.3281 36.6797 12.0703 36.6797H8.55469C8.29688 36.6797 8.08594 36.8907 8.08594 37.1485V48.75C8.08594 49.7872 8.92383 50.625 9.96094 50.625H50.0391C51.0762 50.625 51.9141 49.7872 51.9141 48.75V37.1485C51.9141 36.8907 51.7031 36.6797 51.4453 36.6797Z" fill="#7737FF"/>
</svg>
