<svg width="40" height="44" viewBox="0 0 40 44" fill="none" xmlns="http://www.w3.org/2000/svg">
<path d="M6.58334 35.5846L17 25.168L20.9167 29.0846C19.7708 30.9805 19.0833 33.2096 19.0833 35.5846H6.58334ZM12.8333 17.8763C12.8333 16.1471 11.4375 14.7513 9.70834 14.7513C7.97917 14.7513 6.58334 16.1471 6.58334 17.8763C6.58334 19.6055 7.97917 21.0013 9.70834 21.0013C11.4375 21.0013 12.8333 19.6055 12.8333 17.8763ZM19.2708 37.668H4.5V4.33464H19.0833V14.7513H29.5V23.2721C30.1875 23.168 30.875 23.0846 31.5833 23.0846C32.2917 23.0846 32.9792 23.168 33.6667 23.2721V12.668L21.1667 0.167969H4.5C3.39493 0.167969 2.33513 0.606955 1.55372 1.38836C0.772323 2.16976 0.333336 3.22957 0.333336 4.33464V37.668C0.333336 39.9805 2.1875 41.8346 4.5 41.8346H20.7708C20.0417 40.5638 19.5208 39.168 19.2708 37.668ZM29.5 27.2513V33.5013H23.25V37.668H29.5V43.918H33.6667V37.668H39.9167V33.5013H33.6667V27.2513H29.5Z" fill="#4D4479"/>
</svg>
