<svg width="16" height="20" viewBox="0 0 16 20" fill="none" xmlns="http://www.w3.org/2000/svg">
<path d="M6.75 17C7.38334 17 7.91667 16.7833 8.35 16.35C8.78334 15.9167 9 15.3833 9 14.75V11H11C11.2833 11 11.521 10.904 11.713 10.712C11.905 10.52 12.0007 10.2827 12 10C12 9.71667 11.904 9.479 11.712 9.287C11.52 9.095 11.2827 8.99934 11 9H9C8.71667 9 8.479 9.096 8.287 9.288C8.095 9.48 7.99934 9.71734 8 10V12.875C7.81667 12.7417 7.62067 12.6457 7.412 12.587C7.20333 12.5283 6.98267 12.4993 6.75 12.5C6.11667 12.5 5.58333 12.7167 5.15 13.15C4.71667 13.5833 4.5 14.1167 4.5 14.75C4.5 15.3833 4.71667 15.9167 5.15 16.35C5.58333 16.7833 6.11667 17 6.75 17ZM2 20C1.45 20 0.979002 19.804 0.587002 19.412C0.195002 19.02 -0.000664969 18.5493 1.69779e-06 18V2C1.69779e-06 1.45 0.196001 0.979002 0.588001 0.587002C0.980001 0.195002 1.45067 -0.000664969 2 1.69779e-06H9.175C9.44167 1.69779e-06 9.696 0.0500018 9.938 0.150002C10.18 0.250002 10.3923 0.391668 10.575 0.575002L15.425 5.425C15.6083 5.60834 15.75 5.821 15.85 6.063C15.95 6.305 16 6.559 16 6.825V18C16 18.55 15.804 19.021 15.412 19.413C15.02 19.805 14.5493 20.0007 14 20H2ZM9 2H2V18H14V7H10C9.71667 7 9.479 6.904 9.287 6.712C9.095 6.52 8.99934 6.28267 9 6V2Z" fill="white"/>
</svg>
